<?xml version="1.0" encoding="UTF-8" standalone="no"?>
<!-- Created with Inkscape (http://www.inkscape.org/) -->

<svg
   xmlns:dc="http://purl.org/dc/elements/1.1/"
   xmlns:cc="http://creativecommons.org/ns#"
   xmlns:rdf="http://www.w3.org/1999/02/22-rdf-syntax-ns#"
   xmlns:svg="http://www.w3.org/2000/svg"
   xmlns="http://www.w3.org/2000/svg"
   xmlns:sodipodi="http://sodipodi.sourceforge.net/DTD/sodipodi-0.dtd"
   xmlns:inkscape="http://www.inkscape.org/namespaces/inkscape"
   width="10mm"
   height="10mm"
   viewBox="0 0 10 10"
   version="1.1"
   id="svg8"
   inkscape:version="0.92.2 (5c3e80d, 2017-08-06)"
   sodipodi:docname="Waterbodies_three.svg"
   inkscape:export-filename="D:\PyCharm Projekte\LabProject\Wetland.png"
   inkscape:export-xdpi="300"
   inkscape:export-ydpi="300">
  <defs
     id="defs2">
    <filter
       style="color-interpolation-filters:sRGB"
       id="filter839"
       inkscape:label="Filter0">
      <feGaussianBlur
         stdDeviation="0.10000000000000001"
         id="feGaussianBlur841" />
    </filter>
  </defs>
  <sodipodi:namedview
     id="base"
     pagecolor="#ffffff"
     bordercolor="#666666"
     borderopacity="1.0"
     inkscape:pageopacity="0.0"
     inkscape:pageshadow="2"
     inkscape:zoom="11.2"
     inkscape:cx="22.368241"
     inkscape:cy="15.002591"
     inkscape:document-units="mm"
     inkscape:current-layer="layer1"
     showgrid="false"
     inkscape:window-width="2160"
     inkscape:window-height="1346"
     inkscape:window-x="-11"
     inkscape:window-y="-11"
     inkscape:window-maximized="1" />
  <metadata
     id="metadata5">
    <rdf:RDF>
      <cc:Work
         rdf:about="">
        <dc:format>image/svg+xml</dc:format>
        <dc:type
           rdf:resource="http://purl.org/dc/dcmitype/StillImage" />
        <dc:title />
      </cc:Work>
    </rdf:RDF>
  </metadata>
  <g
     inkscape:label="Ebene 1"
     inkscape:groupmode="layer"
     id="layer1"
     transform="translate(0,-287)">
    <path
       style="fill:#884213;fill-opacity:1;stroke-width:0.21377988"
       d="m -7.866854,300.4053 c 0.529113,-0.13986 0.842604,-0.29849 0.696655,-0.35251 -0.482336,-0.17851 -1.808442,0.40359 -2.648614,1.16264 l -0.827174,0.74732 v -1.84468 -1.84465 l 1.167484,-0.74684 1.167485,-0.74683 0.06173,-1.82598 0.06173,-1.82599 1.566528,1.32933 1.566533,1.32933 -0.07005,1.35349 c -0.03854,0.74441 -0.03324,1.47928 -0.03324,1.47928 0,0 0.74059,-0.37635 1.261241,-0.68146 l 0.94663,-0.55476 v 2.16898 2.169 l -0.801674,-0.58903 c -0.691594,-0.62341 -2.329779,-1.33396 -2.506214,-1.04357 -0.03399,0.0618 0.0326,0.15265 0.249557,0.18033 0.719156,0.0918 1.22998,0.36945 1.858922,0.88055 0.5775,0.43282 1.268731,1.88181 1.189543,1.85662 l -7.691968,-0.0134 c 0.711727,-1.25326 1.448666,-2.22368 2.784916,-2.58718 z m 0.842449,1.34848 c -1.665016,0.002 -2.315001,-0.0734 -2.732949,0.76542 l 2.72366,-0.002 z m 0.558665,-8e-4 -0.01154,0.75739 2.725328,0.0249 c -0.372299,-0.80859 -1.250799,-0.77112 -2.713783,-0.78254 z m -2.27127,-0.4905 1.729019,-0.0605 c 0,0 0.02304,-0.44018 0.02304,-0.50537 -1.257266,-0.047 -1.752066,0.56591 -1.752066,0.56591 z m 2.251045,-0.55271 0.02015,0.50373 1.792199,0.043 c -0.465884,-0.60038 -1.339547,-0.5707 -1.812348,-0.54669 z"
       id="path4515"
       inkscape:connector-curvature="0"
       sodipodi:nodetypes="ccscccccccccccccccccscccccsccsccccccccccccccc" />
    <path
       style="fill:#000000;stroke-width:0.26458332"
       d=""
       id="path4528"
       inkscape:connector-curvature="0" />
    <g
       id="g1059"
       transform="matrix(0.78823391,0,0,0.78823391,109.78218,178.48545)">
      <path
         sodipodi:nodetypes="ccccccccccccccccc"
         inkscape:connector-curvature="0"
         id="path4942"
         d="m -151.32405,141.02591 c -0.0713,-0.21039 -0.55951,-1.21847 -0.74661,-1.54177 -0.16123,-0.27858 -0.43367,-0.68454 -0.58834,-0.87669 -0.24173,-0.30027 -0.61049,-0.64059 -0.88299,-0.81485 -0.0453,-0.0289 0.10677,0.0554 0,0 l -0.34519,-0.12043 c 1.55643,-1.66885 2.48807,-3.47345 4.60052,-3.74994 0.54944,-0.0839 1.07498,0.0897 1.53379,0.29636 0.63722,0.32037 1.10135,0.80453 1.46418,1.3711 l -0.004,0.90023 -0.004,0.90023 -0.22836,0.049 c -1.1773,0.25265 -2.06056,0.74359 -2.8731,1.45279 -0.54855,0.62503 -1.05829,1.22211 -1.64257,2.05623 -0.0879,0.12561 -0.25903,0.10179 -0.26289,0.10575 -0.004,0.004 -0.0123,-0.009 -0.0188,-0.0275 z"
         style="opacity:1;fill:#ac7252;fill-opacity:1;fill-rule:evenodd;stroke:none;stroke-width:0.10936622;stroke-linecap:square;stroke-linejoin:miter;stroke-miterlimit:4;stroke-dasharray:none;stroke-opacity:1;paint-order:markers fill stroke" />
      <path
         sodipodi:nodetypes="ccccccccccsscc"
         inkscape:connector-curvature="0"
         id="path4940"
         d="m -158.95771,142.53231 v -3.1547 c 0.68786,-0.59028 1.45692,-1.16213 2.14242,-1.52766 0.37749,-0.18729 0.7546,-0.34473 1.16,-0.4507 0.50076,-0.0903 1.04695,-0.11837 1.52878,-0.0695 0.27093,0.0538 0.54853,0.15759 0.78574,0.25044 0.72098,0.37238 1.27017,1.03823 1.87347,2.27148 0.19648,0.40162 0.33473,0.71083 0.3907,0.87378 0.0216,0.063 0.30305,0.2964 0.40073,0.54914 0.40913,1.05853 0.61275,1.75291 0.87587,2.81696 0.12184,0.49275 0.63821,1.53033 0.63821,1.59255 0,0.008 -2.56569,0.003 -5.1313,0.003 h -4.66474 z"
         style="opacity:1;fill:#bd896d;fill-opacity:1;fill-rule:evenodd;stroke:none;stroke-width:0.06554094;stroke-linecap:square;stroke-linejoin:miter;stroke-miterlimit:4;stroke-dasharray:none;stroke-opacity:1;paint-order:markers fill stroke" />
      <path
         sodipodi:nodetypes="cccccccccccccccccccc"
         inkscape:connector-curvature="0"
         id="path4944"
         d="m -149.66336,145.44202 c -0.14897,-0.75503 -0.38694,-1.74208 -0.58865,-2.44165 -0.1965,-0.68153 -0.34519,-1.11575 -0.6731,-1.96571 l -0.0961,-0.249 0.11698,-0.16907 c 0.38356,-0.55431 0.89778,-1.22151 0.99843,-1.29545 0.0309,-0.0227 0.0848,-0.0811 0.1197,-0.12975 0.0349,-0.0487 0.0939,-0.10405 0.13092,-0.12288 0.0371,-0.0189 0.10916,-0.0824 0.16032,-0.14128 0.0511,-0.0588 0.12596,-0.1263 0.16619,-0.14995 0.0403,-0.0236 0.1212,-0.0888 0.17991,-0.14493 0.0587,-0.056 0.15476,-0.13846 0.21348,-0.18309 0.0587,-0.0446 0.14758,-0.11795 0.1975,-0.16292 0.0499,-0.045 0.12463,-0.093 0.16603,-0.10663 1.66208,-0.84266 2.27378,-0.77193 2.27378,-0.77193 0,0 0.0252,2.46892 0.04,4.02012 v 4.25881 h -1.6786 -1.67862 z"
         style="opacity:1;fill:#b88163;fill-opacity:1;fill-rule:evenodd;stroke:none;stroke-width:0.06723713;stroke-linecap:square;stroke-linejoin:miter;stroke-miterlimit:4;stroke-dasharray:none;stroke-opacity:1;paint-order:markers fill stroke" />
    </g>
    <path
       style="fill:#247926;fill-opacity:1;stroke-width:0.19647446"
       d="m -8.7045927,295.67941 c -1.020588,-0.19441 -1.8080953,-0.66789 -2.6371413,-1.58553 -0.830109,-0.91884 -1.229432,-1.75196 -1.478345,-3.08431 -0.22567,-1.20798 -0.109983,-1.42564 0.757781,-1.42564 0.675875,0 0.759542,-0.0678 1.206946,-0.9793 0.264396,-0.53864 0.530663,-0.9807 0.591696,-0.98239 0.06104,-9.9e-4 0.26078,0.31111 0.4438783,0.69508 0.183105,0.38398 0.422194,0.64295 0.531316,0.57553 0.109115,-0.0674 0.419239,-0.55843 0.689152,-1.09108 0.269921,-0.53267 0.563634,-0.96848 0.652699,-0.96848 0.08907,0 0.402545,0.44207 0.696615,0.98237 0.294069,0.54031 0.621681,0.98238 0.728026,0.98238 0.106337,0 0.343963,-0.26469 0.528042,-0.58819 0.184078,-0.32349 0.385889,-0.58873 0.448459,-0.58941 0.0626,-7e-4 0.320824,0.44082 0.573896,0.98112 0.438627,0.93649 0.496526,0.98237 1.239716,0.98237 h 0.7795992 l -0.1035562,1.14203 c -0.279937,3.08721 -2.986459,5.46058 -5.648781,4.95345 z m -0.289131,-1.92038 c 0.596701,-2.7778 0.566002,-2.70154 1.087517,-2.70154 0.445296,0 0.508044,0.1326 0.899257,1.90021 0.531235,2.4003 0.509567,2.34386 0.8248,2.148 0.212526,-0.13205 0.149756,-0.5291 -0.327137,-2.06926 -0.475957,-1.53715 -0.537591,-1.92601 -0.318582,-2.01005 0.454853,-0.17455 0.625416,-0.0201 1.525654,1.38121 0.477027,0.74256 0.919248,1.26609 0.982717,1.1634 0.06349,-0.10266 -0.231262,-0.66603 -0.654956,-1.25187 -1.197894,-1.65634 -1.0192,-2.11896 0.297589,-0.77045 0.422075,0.43225 0.856656,0.7859 0.965741,0.7859 0.109085,0 -0.237084,-0.44208 -0.769269,-0.98237 -0.532178,-0.54031 -1.081435,-0.98238 -1.22058,-0.98238 -0.139137,0 -0.252975,-0.13262 -0.252975,-0.29471 0,-0.50776 0.459093,-0.30858 1.375319,0.59673 0.486279,0.4805 0.950444,0.87433 1.031489,0.87522 0.343644,0.003 0.07873,-0.33566 -0.748395,-0.95885 -1.137693,-0.85719 -0.9834,-1.03816 0.194289,-0.22789 0.493868,0.33979 0.896844,0.54725 0.895507,0.46101 -0.0015,-0.0862 -0.305505,-0.35308 -0.675934,-0.59297 -0.370421,-0.23992 -0.911064,-0.84158 -1.201428,-1.33705 l -0.527938,-0.90086 -0.365045,0.60027 c -0.200772,0.33014 -0.454779,0.60025 -0.564458,0.60025 -0.109679,0 -0.442534,-0.44079 -0.73967,-0.97954 -0.297136,-0.53875 -0.584448,-0.98072 -0.638478,-0.98216 -0.05406,-9.9e-4 -0.346481,0.43933 -0.649877,0.97953 -0.303404,0.5402 -0.663117,0.98217 -0.799373,0.98217 -0.136256,0 -0.385303,-0.28734 -0.553446,-0.63854 l -0.3057133,-0.63854 -0.441338,0.90155 c -0.27771,0.56729 -0.723919,1.07618 -1.203493,1.37258 -0.419179,0.25907 -0.762147,0.54379 -0.762147,0.63274 0,0.1882 0.246336,0.0554 1.135071,-0.61177 0.993618,-0.74593 0.952575,-0.38016 -0.04946,0.44094 -0.489019,0.40072 -0.889121,0.81814 -0.889121,0.9276 0,0.10948 0.503923,-0.25009 1.119826,-0.79905 1.10871,-0.98816 1.7252163,-1.27623 1.5053903,-0.70337 -0.06223,0.16209 -0.2174733,0.29471 -0.3450483,0.29471 -0.280324,0 -2.199576,1.91435 -2.059592,2.05434 0.05428,0.0543 0.487296,-0.29737 0.96231,-0.78137 1.3332523,-1.35849 1.6385943,-1.08462 0.526074,0.47184 -0.906943,1.26886 -0.951996,1.35771 -0.751306,1.48175 0.09799,0.0606 0.551641,-0.50803 1.00812,-1.26351 0.6655603,-1.10156 0.9253973,-1.37363 1.3118363,-1.37363 0.367629,0 0.457192,0.0815 0.377743,0.34383 -0.05725,0.18912 -0.332795,1.07472 -0.612243,1.96801 -0.477991,1.52793 -0.501464,2.0106 -0.0978,2.0106 0.09431,0 0.318664,-0.6852 0.498569,-1.52266 z"
       id="path4996"
       inkscape:connector-curvature="0" />
    <path
       style="fill:#3cc302;fill-opacity:0.99215686;stroke-width:0.22003517"
       d="m -8.7815744,296.39011 c -0.578406,-0.25183 -0.861043,-0.2739 -1.155182,-0.0902 -0.2564246,0.16014 -0.3894186,0.1658 -0.3894186,0.0165 0,-0.12464 0.233164,-0.33286 0.5181466,-0.46271 0.414068,-0.18866 0.699599,-0.1435 1.421461,0.22476 1.125585,0.57423 1.337534,0.57338 2.538781,-0.0103 0.927524,-0.45062 0.99225,-0.45452 1.491135,-0.0897 0.497198,0.36364 0.499186,0.37489 0.04258,0.24133 -0.26341,-0.077 -0.844843,0.0128 -1.292085,0.19967 -1.004367,0.41965 -2.168589,0.4088 -3.175434,-0.0295 z m 0.765764,-0.66387 c -0.484074,-0.19256 -1.201945,-0.36068 -1.595255,-0.37358 -0.8666236,-0.0284 -0.9333626,-0.29038 -0.125643,-0.49309 0.405893,-0.10187 0.868437,-2.1e-4 1.48524,0.32646 1.103147,0.58426 1.230744,0.58528 2.19303,0.0175 0.948623,-0.5597 1.966844,-0.49813 2.077759,0.12563 0.06329,0.35592 0.0237,0.38747 -0.207159,0.16503 -0.374458,-0.36087 -0.976216,-0.34865 -1.580353,0.0321 -0.823537,0.51903 -1.331804,0.56425 -2.247619,0.19994 z m -0.633817,-1.1035 c -0.688963,-0.28539 -0.936922,-0.30182 -1.283952,-0.085 -0.3713976,0.23193 -0.4193326,0.21419 -0.3512216,-0.13004 0.0588,-0.2973 0.273331,-0.39456 0.8438786,-0.38262 0.420754,0.009 0.938285,0.0937 1.150068,0.18857 0.321133,0.14391 0.38506,0.059 0.38506,-0.5111 0,-0.57314 -0.08456,-0.68364 -0.523144,-0.68364 -0.287727,0 -0.641527,-0.14264 -0.786205,-0.31697 -0.144687,-0.17433 -0.382442,-0.27117 -0.528343,-0.21519 -0.145892,0.0559 -0.4588926,-0.0398 -0.6955486,-0.21283 -0.393286,-0.28757 -0.405361,-0.38733 -0.140471,-1.16005 0.477397,-1.39257 0.9212456,-2.27563 1.1437896,-2.27563 0.115347,0 0.209712,-0.17823 0.209712,-0.39606 0,-0.47938 0.409959,-0.92414 0.851812,-0.92414 0.178052,0 0.510604,-0.16912 0.739002,-0.37582 0.33607,-0.30413 0.486245,-0.32486 0.787445,-0.10861 0.204697,0.14696 0.520708,0.32322 0.702236,0.39167 0.761755,0.28733 0.993954,0.49323 1.060476,0.94035 0.03867,0.25994 0.157802,0.47261 0.264724,0.47261 0.106923,0 0.355904,0.37132 0.553283,0.82513 0.197379,0.45382 0.449562,0.99708 0.56041,1.20721 0.330215,0.62603 0.230561,1.23718 -0.243085,1.49065 -0.244532,0.13087 -0.530363,0.18496 -0.635173,0.1202 -0.104802,-0.0648 -0.312909,0.0297 -0.462461,0.20985 -0.149552,0.1802 -0.507335,0.32763 -0.795062,0.32763 -0.438585,0 -0.523145,0.1105 -0.523145,0.68364 0,0.57014 0.06395,0.65501 0.385061,0.5111 0.627073,-0.28103 1.875357,-0.23058 1.981314,0.0801 0.06944,0.20368 -0.05663,0.24607 -0.443283,0.14903 -0.302347,-0.0759 -0.90522,0.0167 -1.368628,0.21043 -0.455533,0.19033 -0.865659,0.34607 -0.911391,0.34607 -0.04574,0 -0.08316,-0.59409 -0.08316,-1.32022 0,-1.31432 0.0033,-1.3202 0.647116,-1.3202 0.355921,0 0.708315,-0.099 0.783112,-0.22005 0.07476,-0.12101 0.322339,-0.22003 0.550097,-0.22003 0.525349,0 0.784701,-0.40349 0.464906,-0.72328 -0.134682,-0.13468 -0.244873,-0.42311 -0.244873,-0.64094 0,-0.21783 -0.09901,-0.39606 -0.220033,-0.39606 -0.121018,0 -0.220032,-0.19803 -0.220032,-0.44006 0,-0.25005 -0.146691,-0.44008 -0.339712,-0.44008 -0.186834,0 -0.32362,-0.12377 -0.303977,-0.27504 0.07535,-0.58016 -0.02844,-0.82514 -0.349467,-0.82514 -0.183167,0 -0.527253,-0.12128 -0.764633,-0.26953 -0.340569,-0.21269 -0.488433,-0.21269 -0.701122,0 -0.148246,0.14825 -0.447765,0.26953 -0.665602,0.26953 -0.271053,0 -0.396064,0.16619 -0.396064,0.52655 0,0.2896 -0.14852,0.58354 -0.330048,0.6532 -0.181528,0.0697 -0.330057,0.27829 -0.330057,0.46361 0,0.18533 -0.09901,0.33696 -0.220033,0.33696 -0.121018,0 -0.220032,0.17823 -0.220032,0.39606 0,0.21783 -0.110191,0.50626 -0.244873,0.64094 -0.3197946,0.31979 -0.06046,0.72328 0.464905,0.72328 0.22775,0 0.475293,0.099 0.55009,0.22003 0.07476,0.12102 0.427191,0.22005 0.783103,0.22005 0.644238,0 0.647124,0.006 0.647124,1.3202 0,0.72613 -0.07426,1.31511 -0.165029,1.30887 -0.09076,-0.006 -0.549257,-0.17049 -1.018878,-0.36504 z"
       id="path4992"
       inkscape:connector-curvature="0" />
    <path
       style="fill:#238c00;fill-opacity:1;stroke-width:0.20749608"
       d="m 26.075631,285.94188 c -0.183002,-1.50301 -0.745253,-3.0337 -1.573784,-4.28457 -0.354397,-0.53503 -0.601031,-1.01611 -0.54808,-1.06907 0.203039,-0.20304 1.53527,0.8956 2.283338,1.88298 0.812297,1.07213 1.297615,2.27111 1.530815,3.78191 l 0.13612,0.88185 h -0.841572 -0.841573 z m 1.975626,0 c -0.01678,-2.76351 -0.94677,-6.00695 -2.189049,-7.63442 -0.389758,-0.51061 -0.708652,-0.97427 -0.708652,-1.03034 0,-0.31237 0.550017,0.008 1.433884,0.83447 1.751625,1.63845 2.779211,4.14108 3.058901,7.44979 l 0.133022,1.5736 H 28.91893 28.058496 Z m 2.376184,0.13809 c 0.244423,-1.84253 0.915856,-3.27495 2.115833,-4.51385 0.610983,-0.63081 1.167643,-1.09015 1.237017,-1.02077 0.06941,0.0694 -0.209862,0.8101 -0.620536,1.64605 -0.520005,1.05849 -0.819058,2.03957 -0.985081,3.23174 l -0.2384,1.71184 h -0.82439 -0.82439 z m -0.682035,-3.17764 c -0.22539,-0.89509 -0.206349,-1.08924 0.18635,-1.90046 0.466253,-0.96314 1.677091,-2.16673 2.179787,-2.16673 0.210552,0 0.08815,0.30225 -0.399153,0.98561 -0.386558,0.54208 -0.866982,1.49914 -1.067605,2.12683 -0.665402,2.08179 -0.626096,2.04007 -0.899379,0.95475 z"
       id="path5009"
       inkscape:connector-curvature="0" />
    <path
       style="fill:#30713d;fill-opacity:1;stroke-width:0.21459821"
       d="m -7.3580428,291.41834 c 0,-0.95526 0.07924,-1.46587 0.214596,-1.38223 0.118028,0.0729 0.214595,-0.0662 0.214595,-0.30923 0,-0.24303 -0.09657,-0.44186 -0.214595,-0.44186 -0.118028,0 -0.214596,-0.38628 -0.214596,-0.85839 0,-0.61996 0.08941,-0.8584 0.321894,-0.8584 0.247111,0 0.321901,0.27421 0.321901,1.18029 0,0.77494 0.08844,1.18029 0.257518,1.18029 0.200288,0 0.200288,0.0573 0,0.25752 -0.141639,0.14163 -0.257518,0.81762 -0.257518,1.50218 0,0.96331 -0.07275,1.24468 -0.321901,1.24468 -0.255734,0 -0.321894,-0.31139 -0.321894,-1.51485 z m -3.3727862,-0.25559 c 0.417771,-1.05022 3.8974252,-8.10103 3.9978612,-8.10088 0.106057,1.8e-4 3.346037,6.84412 3.784239,7.99358 0.129481,0.33966 -0.03333,0.37555 -1.703884,0.37555 -1.791286,0 -1.847039,-0.0151 -1.847039,-0.50011 0,-0.34792 0.297869,-0.71404 0.978746,-1.20301 1.131691,-0.81273 1.13749,-1.0556 0.01241,-0.51907 -0.558031,0.26609 -0.702436,0.42542 -0.509415,0.56203 0.201269,0.14244 0.188811,0.16871 -0.04923,0.10387 -0.175242,-0.0478 -0.340248,-0.36818 -0.366681,-0.71211 -0.02985,-0.38851 0.01736,-0.51953 0.124598,-0.34594 0.128767,0.20834 0.264168,0.13972 0.532579,-0.26994 0.197952,-0.30211 0.266821,-0.54929 0.153035,-0.54929 -0.113787,0 -0.266562,0.0966 -0.33951,0.21459 -0.244322,0.39533 -0.536497,0.22003 -0.536497,-0.32188 0,-0.42921 -0.107298,-0.53651 -0.536489,-0.53651 -0.483631,0 -0.536497,0.0854 -0.536497,0.86594 0,0.81131 -0.02823,0.85084 -0.447578,0.62642 -0.657753,-0.35203 -0.701008,-0.136 -0.08807,0.43982 0.390105,0.36648 0.535653,0.7263 0.535653,1.32421 v 0.82098 h -1.632452 c -1.2197992,0 -1.6054672,-0.0678 -1.5257382,-0.26825 z m 2.9162132,-1.80557 c -0.267064,-0.32374 -0.249504,-0.33304 0.188325,-0.0997 0.499358,0.26608 0.622317,0.45677 0.294519,0.45677 -0.103575,0 -0.320855,-0.16066 -0.482844,-0.35703 z"
       id="path1073"
       inkscape:connector-curvature="0" />
    <path
       style="fill:#00b200;fill-opacity:0.98823529;stroke-width:0.23556736"
       d="m -11.697508,286.29814 c -0.287141,-0.1801 -0.29576,-0.27601 -0.0471,-0.52466 0.434251,-0.43425 7.9009077,-0.43425 8.3351497,0 0.406277,0.40629 -0.197422,0.81297 -0.869633,0.58585 -0.259123,-0.0875 -0.736145,-0.12964 -1.060049,-0.0934 -0.323903,0.0361 -0.827431,0.0638 -1.118944,0.0616 -0.291513,-0.003 -0.795041,-0.004 -1.118944,-0.004 -0.323904,0 -0.827432,0.002 -1.118945,0.004 -0.291522,0.003 -0.795041,-0.0254 -1.118944,-0.0616 -0.3239117,-0.0362 -0.8009347,0.006 -1.0600577,0.0934 -0.259122,0.0875 -0.629252,0.06 -0.822516,-0.0611 z m -0.0018,-1.18588 c -0.314083,-0.20619 -0.314083,-0.25773 0,-0.46392 0.422695,-0.27748 0.546113,-0.28827 4.0046487,-0.35009 2.685708,-0.048 4.475778,0.17834 4.475778,0.56593 0,0.34957 -0.688202,0.48264 -1.297662,0.25091 -0.362544,-0.13784 -0.805912,-0.13985 -1.159882,-0.005 -0.315151,0.11982 -0.871681,0.13414 -1.236726,0.0319 -0.365046,-0.10229 -0.965344,-0.10345 -1.333987,-0.003 -0.368652,0.10096 -0.925172,0.0866 -1.236727,-0.0319 -0.350239,-0.13316 -0.7971237,-0.12768 -1.1707257,0.0144 -0.719576,0.27358 -0.612095,0.27455 -1.044717,-0.009 z m 0.05885,-1.09468 c -1.020741,-0.41187 0.872981,-1.07881 2.4496187,-0.86271 l 1.025005,0.1405 v -0.94214 c 0,-1.42293 -0.405556,-3.2727 -0.986739,-4.50055 -0.768838,-1.62432 -0.763051,-1.65175 0.13915,-0.65903 0.926134,1.01904 1.558119,2.67041 1.767722,4.61903 l 0.139915,1.30085 1.413405,0.0121 c 1.483812,0.0127 2.473462,0.23978 2.473462,0.56746 0,0.32733 -0.676698,0.47638 -1.231296,0.27123 -0.288815,-0.10685 -0.860373,-0.10167 -1.270132,0.0115 -0.428829,0.11841 -0.98088,0.11682 -1.300786,-0.003 -0.323155,-0.12179 -0.789725,-0.12214 -1.114697,-8.6e-4 -0.318223,0.11876 -0.876239,0.12096 -1.295782,0.005 -0.405271,-0.11189 -0.9488017,-0.12074 -1.2078357,-0.0197 -0.550243,0.21473 -0.610661,0.2184 -1.00101,0.0608 z m 2.1278607,-2.4779 c -0.152194,-0.80085 -0.4976337,-1.75489 -0.7676537,-2.12011 -0.628923,-0.85067 -0.282815,-0.86131 0.5266587,-0.0162 1.193153,1.24568 1.803913,3.5924 0.934947,3.5924 -0.324419,0 -0.478785,-0.32389 -0.693952,-1.45608 z m 2.760167,0.90232 c 0,-0.82892 0.465635,-2.06021 1.104574,-2.92085 0.780502,-1.05133 1.126147,-0.96367 0.561828,0.14249 -0.254796,0.49945 -0.535625,1.45351 -0.624053,2.12011 -0.128653,0.96986 -0.248839,1.21201 -0.601563,1.21201 -0.305669,0 -0.440786,-0.16975 -0.440786,-0.55376 z m -0.471138,-2.72611 c 0,-0.39715 0.258126,-0.9954 0.609861,-1.4134 0.738166,-0.87726 1.272901,-0.97851 0.59127,-0.11195 -0.265123,0.33704 -0.549629,0.97307 -0.632234,1.4134 -0.183988,0.98073 -0.568897,1.05649 -0.568897,0.11195 z"
       id="path5056"
       inkscape:connector-curvature="0" />
    <path
       style="fill:#00ffff;fill-opacity:1;stroke:#00ffff;stroke-width:0.30000001;stroke-miterlimit:4;stroke-dasharray:none;stroke-opacity:1;filter:url(#filter839)"
       d="m 0.22125584,295.53313 c -0.0861,-0.22441 -0.04787,-0.44427 0.08496,-0.48855 0.132852,-0.0443 0.608281,-0.26748 1.05651196,-0.496 0.689256,-0.35141 0.879964,-0.36797 1.23634,-0.10738 0.520782,0.38081 1.539402,0.40047 1.903143,0.0367 0.207217,-0.20722 0.49832,-0.19651 1.231,0.0453 0.828596,0.27347 1.043318,0.26923 1.572762,-0.031 0.55949,-0.31729 0.699821,-0.30602 1.603149,0.12868 1.014508,0.4882 1.2833062,1.24102 0.392945,1.10049 -0.433389,-0.0684 -0.690728,-0.0746 -2.716763,-0.0659 -0.478436,0.002 -1.183043,0.004 -1.565801,0.004 -0.382748,0 -1.061255,0 -1.507804,0 -0.44654,0 -1.098955,-0.0184 -1.449808,-0.0409 -0.350861,-0.0225 -0.8733,0.0409 -1.16099296,0.141 -0.394584,0.13725 -0.561541,0.0817 -0.679655,-0.22608 z m 0.09388,-1.62202 c -0.383591,-0.38359 -0.107252,-0.74536 0.84803196,-1.11019 0.835268,-0.31899 1.124854,-0.33759 1.635247,-0.10504 0.491148,0.22378 0.790344,0.22109 1.437586,-0.013 0.657378,-0.23771 0.954907,-0.23858 1.52014,-0.004 0.559104,0.23159 0.864349,0.23268 1.493084,0.005 0.672001,-0.243 0.930043,-0.22413 1.723735,0.12605 1.0526102,0.46441 1.1996832,1.18345 0.214775,1.05002 -0.314977,-0.0427 -0.938039,-0.0629 -1.384579,-0.0448 -0.44654,0.0181 -1.098955,0.0268 -1.449808,0.0196 -0.873397,-0.0181 -1.904869,-0.0166 -2.667657,0.004 -0.350853,0.009 -0.951076,-0.01 -1.333833,-0.043 -0.382749,-0.0331 -0.960019,0.017 -1.282816,0.11123 -0.32280596,0.0942 -0.66205896,0.0961 -0.75390596,0.004 z m -0.166993,-2.27269 c 0,-0.17999 0.456351,-0.54818 1.01411396,-0.81819 0.98227,-0.47551 1.036557,-0.47803 1.729285,-0.0805 0.685065,0.39317 0.74492,0.39289 1.421577,-0.007 0.674904,-0.39868 0.737126,-0.39912 1.395705,-0.0101 0.64285,0.37974 0.74271,0.38172 1.481712,0.0293 0.749479,-0.35739 0.844105,-0.3523 1.746382,0.0941 0.524683,0.2596 0.953969,0.61766 0.953969,0.7957 0,0.38969 -1.179676,0.44307 -1.552491,0.0702 -0.1833,-0.1833 -0.396084,-0.17713 -0.768715,0.0223 -0.299458,0.16027 -0.868514,0.21564 -1.358732,0.13222 -0.463908,-0.0789 -1.00006,-0.14353 -1.191434,-0.14353 -0.191374,0 -0.727517,0.0646 -1.191433,0.14353 -0.49021,0.0834 -1.059274,0.028 -1.358733,-0.13222 -0.372622,-0.19942 -0.585415,-0.2056 -0.768714,-0.0223 -0.375182,0.37518 -1.55249196,0.31922 -1.55249196,-0.0738 z m 0.07312,-1.90454 c -0.0861,-0.22442 -0.04787,-0.44426 0.08496,-0.48855 0.132852,-0.0443 0.60828,-0.26748 1.05651196,-0.496 0.689256,-0.35141 0.879964,-0.36797 1.23634,-0.10738 0.520791,0.3808 1.539402,0.40046 1.903143,0.0367 0.207217,-0.20722 0.498328,-0.19651 1.231,0.0453 0.828596,0.27347 1.043318,0.26922 1.572762,-0.031 0.55949,-0.31729 0.69982,-0.30603 1.603149,0.12868 1.014508,0.48819 1.2833152,1.24101 0.392945,1.10049 -0.43338,-0.0684 -0.69072,-0.0746 -2.716763,-0.0659 -0.478436,0.002 -1.183043,0.004 -1.565792,0.004 -0.382757,0 -1.061264,0 -1.507813,0 -0.44654,0 -1.098955,-0.0184 -1.449808,-0.0409 -0.350852,-0.0225 -0.8733,0.0409 -1.16099296,0.141 -0.394575,0.13725 -0.561541,0.0817 -0.679655,-0.22609 z"
       id="path1069-3"
       inkscape:connector-curvature="0" />
    <path
       style="fill:#bfda66;fill-opacity:1;stroke-width:0.2;stroke:none;stroke-opacity:1;stroke-miterlimit:4;stroke-dasharray:none"
       d="m 0.22124284,295.53348 c -0.0861,-0.22441 -0.04787,-0.44427 0.08496,-0.48855 0.132852,-0.0443 0.60828098,-0.26748 1.05651196,-0.496 0.689256,-0.35141 0.879964,-0.36797 1.23634,-0.10738 0.520782,0.38081 1.539402,0.40047 1.903143,0.0367 0.207217,-0.20722 0.49832,-0.19651 1.231,0.0453 0.828596,0.27347 1.043318,0.26923 1.572762,-0.031 0.55949,-0.31729 0.699821,-0.30602 1.603149,0.12868 1.0145076,0.4882 1.2833062,1.24102 0.392945,1.10049 -0.433389,-0.0684 -0.690728,-0.0746 -2.716763,-0.0659 -0.478436,0.002 -1.183043,0.004 -1.565801,0.004 -0.382748,0 -1.061255,0 -1.507804,0 -0.44654,0 -1.098955,-0.0184 -1.449808,-0.0409 -0.350861,-0.0225 -0.8733,0.0409 -1.16099298,0.141 -0.39458398,0.13725 -0.56154098,0.0817 -0.67965498,-0.22608 z m 0.09388,-1.62202 c -0.383591,-0.38359 -0.107252,-0.74536 0.84803196,-1.11019 0.835268,-0.31899 1.124854,-0.33759 1.635247,-0.10504 0.491148,0.22378 0.790344,0.22109 1.437586,-0.013 0.657378,-0.23771 0.954907,-0.23858 1.52014,-0.004 0.559104,0.23159 0.864349,0.23268 1.493084,0.005 0.672001,-0.243 0.930043,-0.22413 1.723735,0.12605 1.0526102,0.46441 1.1996832,1.18345 0.214775,1.05002 -0.314977,-0.0427 -0.938039,-0.0629 -1.384579,-0.0448 -0.44654,0.0181 -1.098955,0.0268 -1.449808,0.0196 -0.873397,-0.0181 -1.904869,-0.0166 -2.667657,0.004 -0.350853,0.009 -0.951076,-0.01 -1.333833,-0.043 -0.382749,-0.0331 -0.960019,0.017 -1.282816,0.11123 -0.32280596,0.0942 -0.66205896,0.0961 -0.75390596,0.004 z m -0.166993,-2.27269 c 0,-0.17999 0.456351,-0.54818 1.01411396,-0.81819 0.98227,-0.47551 1.036557,-0.47803 1.729285,-0.0805 0.685065,0.39317 0.74492,0.39289 1.421577,-0.007 0.674904,-0.39868 0.737126,-0.39912 1.395705,-0.0101 0.64285,0.37974 0.74271,0.38172 1.481712,0.0293 0.749479,-0.35739 0.844105,-0.3523 1.746382,0.0941 0.524683,0.2596 0.9539686,0.61766 0.9539686,0.7957 0,0.38969 -1.1796756,0.44307 -1.5524906,0.0702 -0.1833,-0.1833 -0.396084,-0.17713 -0.768715,0.0223 -0.299458,0.16027 -0.868514,0.21564 -1.358732,0.13222 -0.463908,-0.0789 -1.00006,-0.14353 -1.191434,-0.14353 -0.191374,0 -0.727517,0.0646 -1.191433,0.14353 -0.49021,0.0834 -1.059274,0.028 -1.358733,-0.13222 -0.372622,-0.19942 -0.585415,-0.2056 -0.768714,-0.0223 -0.375182,0.37518 -1.55249196,0.31922 -1.55249196,-0.0738 z m 0.07312,-1.90454 c -0.0861,-0.22442 -0.04787,-0.44426 0.08496,-0.48855 0.132852,-0.0443 0.60827998,-0.26748 1.05651196,-0.496 0.689256,-0.35141 0.879964,-0.36797 1.23634,-0.10738 0.520791,0.3808 1.539402,0.40046 1.903143,0.0367 0.207217,-0.20722 0.498328,-0.19651 1.231,0.0453 0.828596,0.27347 1.043318,0.26922 1.572762,-0.031 0.55949,-0.31729 0.69982,-0.30603 1.603149,0.12868 1.0145076,0.48819 1.2833152,1.24101 0.392945,1.10049 -0.43338,-0.0684 -0.69072,-0.0746 -2.716763,-0.0659 -0.478436,0.002 -1.183043,0.004 -1.565792,0.004 -0.382757,0 -1.061264,0 -1.507813,0 -0.44654,0 -1.098955,-0.0184 -1.449808,-0.0409 -0.350852,-0.0225 -0.8733,0.0409 -1.16099298,0.141 -0.39457498,0.13725 -0.56154098,0.0817 -0.67965498,-0.22609 z"
       id="path1069"
       inkscape:connector-curvature="0" />
  </g>
</svg>
